<svg width="104" height="112" viewBox="0 0 104 112" fill="none" xmlns="http://www.w3.org/2000/svg">
<path d="M89.1549 32C85.0516 32 81.7253 35.5818 81.7253 40C81.7267 40.8386 81.8521 41.6718 82.0967 42.468L76.071 46.5922C72.1038 49.3138 66.8731 48.4118 63.8937 44.4922L57.9872 36.7122C58.9271 35.3496 59.4353 33.6976 59.436 32C59.436 27.5818 56.1095 24 52.0063 24C47.903 24 44.5764 27.5818 44.5764 32C44.5772 33.6976 45.0853 35.3496 46.0254 36.7122L40.1187 44.4922C37.1399 48.4096 31.9117 49.3114 27.9452 46.5922L21.9165 42.468C22.1611 41.6718 22.2865 40.8386 22.2879 40C22.2885 35.5818 18.9627 31.9994 14.8594 31.9986C10.7563 31.9978 7.42928 35.5792 7.42857 39.9974C7.42789 44.1448 10.3711 47.6052 14.2081 47.968L18.5991 76.328C18.7479 77.2924 19.5225 77.9996 20.4304 78H83.5826C84.4905 77.9996 85.2651 77.2924 85.4139 76.328L89.8049 47.968C93.8918 47.5734 96.9078 43.6858 96.5413 39.2852C96.1981 35.166 92.9957 32.0076 89.1549 32Z" fill="#FFC107"/>
<path d="M52 86C69.4363 86 83.5714 81.5228 83.5714 76C83.5714 70.4772 69.4363 66 52 66C34.5637 66 20.4286 70.4772 20.4286 76C20.4286 81.5228 34.5637 86 52 86Z" fill="#FFA000"/>
<path d="M52 88C35.386 88 18.5714 83.88 18.5714 76C18.5714 68.12 35.386 64 52 64C68.614 64 85.4286 68.12 85.4286 76C85.4286 83.88 68.614 88 52 88ZM52 68C32.4926 68 22.2857 73.1998 22.2857 76C22.2857 78.8002 32.4926 84 52 84C71.5074 84 81.7143 78.8002 81.7143 76C81.7143 73.1998 71.5074 68 52 68Z" fill="#FFD54F"/>
</svg>
