<svg width="35" height="36" viewBox="0 0 35 36" fill="none" xmlns="http://www.w3.org/2000/svg">
<path d="M30.625 0.301514C31.7853 0.301514 32.8981 0.762376 33.7186 1.58271C34.5391 2.40305 35 3.51567 35 4.67581V30.9216C35 32.0817 34.5391 33.1943 33.7186 34.0147C32.8981 34.835 31.7853 35.2959 30.625 35.2959H4.375C3.21468 35.2959 2.10188 34.835 1.28141 34.0147C0.460936 33.1943 0 32.0817 0 30.9216V4.67581C0 3.51567 0.460936 2.40305 1.28141 1.58271C2.10188 0.762376 3.21468 0.301514 4.375 0.301514L30.625 0.301514ZM12.915 23.9293L21.875 14.9707V21.0247C21.875 21.3148 21.9902 21.5929 22.1954 21.798C22.4005 22.0031 22.6787 22.1183 22.9688 22.1183C23.2588 22.1183 23.537 22.0031 23.7421 21.798C23.9473 21.5929 24.0625 21.3148 24.0625 21.0247V12.3308C24.0625 12.0408 23.9473 11.7626 23.7421 11.5575C23.537 11.3525 23.2588 11.2372 22.9688 11.2372H14.2734C13.9834 11.2372 13.7052 11.3525 13.5 11.5575C13.2949 11.7626 13.1797 12.0408 13.1797 12.3308C13.1797 12.6209 13.2949 12.899 13.5 13.1041C13.7052 13.3092 13.9834 13.4244 14.2734 13.4244H20.3284L11.3684 22.3829C11.1692 22.5892 11.059 22.8654 11.0615 23.1522C11.0639 23.4389 11.179 23.7132 11.3818 23.9159C11.5846 24.1187 11.8589 24.2337 12.1457 24.2362C12.4324 24.2387 12.7087 24.1285 12.915 23.9293Z" fill="#FFC700"/>
</svg>
