<svg width="42" height="38" viewBox="0 0 42 38" fill="none" xmlns="http://www.w3.org/2000/svg">
<path d="M2.30498 29.0052C2.58771 29.0055 2.86772 28.95 3.12893 28.8418C3.39014 28.7336 3.62739 28.5749 3.82707 28.3747L15.9375 16.2642L20.8729 21.1998C21.0728 21.3996 21.3101 21.5582 21.5712 21.6664C21.8324 21.7746 22.1123 21.8302 22.395 21.8302C22.6776 21.8302 22.9576 21.7746 23.2187 21.6664C23.4799 21.5582 23.7172 21.3996 23.9171 21.1998L37.4617 7.65515L37.4608 12.5027C37.4608 13.0735 37.6876 13.621 38.0913 14.0247C38.495 14.4284 39.0425 14.6552 39.6133 14.6552C40.1842 14.6552 40.7317 14.4284 41.1354 14.0247C41.5391 13.621 41.7658 13.0735 41.7658 12.5027L41.7675 2.45767C41.7675 1.8868 41.5407 1.3393 41.137 0.935628C40.7333 0.531956 40.1858 0.305176 39.615 0.305176H29.57C28.9991 0.305176 28.4516 0.531956 28.0479 0.935628C27.6442 1.3393 27.4175 1.8868 27.4175 2.45767C27.4175 3.02855 27.6442 3.57605 28.0479 3.97972C28.4516 4.38339 28.9991 4.61017 29.57 4.61017H34.4184L22.395 16.6336L17.4596 11.6981C17.2597 11.4982 17.0224 11.3396 16.7612 11.2315C16.5001 11.1233 16.2202 11.0676 15.9375 11.0676C15.6548 11.0676 15.3749 11.1233 15.1137 11.2315C14.8526 11.3396 14.6153 11.4982 14.4154 11.6981L0.782897 25.3306C0.481849 25.6316 0.276831 26.0152 0.19377 26.4327C0.110709 26.8503 0.153335 27.2831 0.316259 27.6764C0.479183 28.0697 0.755086 28.4059 1.10908 28.6424C1.46307 28.8789 1.87925 29.0052 2.30498 29.0052Z" fill="white"/>
<path d="M39.615 33.3102H2.305C1.73412 33.3102 1.18662 33.537 0.782949 33.9406C0.379277 34.3443 0.152496 34.8918 0.152496 35.4627C0.152496 36.0336 0.379277 36.581 0.782949 36.9847C1.18662 37.3884 1.73412 37.6152 2.305 37.6152H39.615C40.1859 37.6152 40.7333 37.3884 41.137 36.9847C41.5407 36.581 41.7675 36.0336 41.7675 35.4627C41.7675 34.8918 41.5407 34.3443 41.137 33.9406C40.7333 33.537 40.1859 33.3102 39.615 33.3102Z" fill="white"/>
</svg>
