<svg width="35" height="32" viewBox="0 0 35 32" fill="none" xmlns="http://www.w3.org/2000/svg">
<path d="M34.8448 11.9975C34.6577 11.4509 34.3036 10.9692 33.8273 10.6132C33.351 10.2572 32.7738 10.0431 32.1689 9.99787L23.633 9.34512L20.3387 1.80207C20.1072 1.26896 19.7136 0.813023 19.2079 0.492165C18.7022 0.171306 18.1072 0 17.4985 0C16.8898 0 16.2948 0.171306 15.7891 0.492165C15.2833 0.813023 14.8897 1.26896 14.6582 1.80207L11.367 9.34655L2.83109 9.99787C2.22506 10.0452 1.64732 10.2611 1.17047 10.6184C0.69363 10.9757 0.338954 11.4585 0.151017 12.0062C-0.0369196 12.5538 -0.0497321 13.1418 0.11419 13.6963C0.278111 14.2508 0.611454 14.7471 1.07233 15.1227L7.58547 20.4419L5.59442 28.3977C5.44921 28.9586 5.48356 29.5478 5.69311 30.0902C5.90266 30.6325 6.27793 31.1036 6.77113 31.4433C7.26433 31.7831 7.85314 31.9761 8.4626 31.9979C9.07206 32.0197 9.67458 31.8693 10.1934 31.5658L17.4985 27.3079L24.8035 31.5658C25.3222 31.8673 25.9238 32.0162 26.532 31.9938C27.1402 31.9714 27.7276 31.7786 28.2201 31.4399C28.7125 31.1011 29.0877 30.6317 29.2982 30.0909C29.5087 29.5501 29.545 28.9623 29.4025 28.402L27.4115 20.4461L33.9246 15.127C34.3883 14.7505 34.7233 14.2519 34.8871 13.6947C35.0509 13.1375 35.0362 12.5468 34.8448 11.9975ZM24.2153 18.525C23.9641 18.7301 23.7773 18.9965 23.6751 19.2952C23.573 19.594 23.5595 19.9135 23.636 20.219L25.5803 27.9949L18.4473 23.8413C18.1619 23.675 17.8335 23.587 17.4985 23.587C17.1635 23.587 16.835 23.675 16.5497 23.8413L9.41664 27.9949L11.3609 20.2248C11.4375 19.9192 11.424 19.5997 11.3218 19.3009C11.2197 19.0022 11.0329 18.7358 10.7817 18.5308L4.40583 13.3173L12.7622 12.6789C13.0947 12.6536 13.4134 12.5417 13.6831 12.3557C13.9527 12.1697 14.1628 11.9167 14.2902 11.6247L17.4985 4.26881L20.7068 11.6247C20.8342 11.9167 21.0443 12.1697 21.3139 12.3557C21.5835 12.5417 21.9022 12.6536 22.2348 12.6789L30.5911 13.3173L24.2153 18.525Z" fill="white"/>
</svg>
