<svg width="74" height="92" viewBox="0 0 74 92" fill="none" xmlns="http://www.w3.org/2000/svg">
<path fill-rule="evenodd" clip-rule="evenodd" d="M19.9574 26.776C19.9574 22.5136 21.6529 18.4258 24.6708 15.4118C27.6888 12.3978 31.782 10.7046 36.05 10.7046C40.3181 10.7046 44.4113 12.3978 47.4293 15.4118C50.4472 18.4258 52.1427 22.5136 52.1427 26.776C52.1427 31.0384 50.4472 35.1262 47.4293 38.1402C44.4113 41.1542 40.3181 42.8474 36.05 42.8474C31.782 42.8474 27.6888 41.1542 24.6708 38.1402C21.6529 35.1262 19.9574 31.0384 19.9574 26.776ZM6.55048 77.151C6.67106 69.417 9.83209 62.0405 15.3512 56.6138C20.8703 51.1871 28.3049 48.1455 36.05 48.1455C43.7952 48.1455 51.2298 51.1871 56.7489 56.6138C62.268 62.0405 65.429 69.417 65.5496 77.151C65.5589 77.6716 65.416 78.1837 65.1385 78.6246C64.8609 79.0654 64.4607 79.4159 63.9868 79.6331C55.2217 83.6445 45.6917 85.7157 36.05 85.7045C26.0869 85.7045 16.6209 83.5331 8.11325 79.6331C7.63936 79.4159 7.23915 79.0654 6.9616 78.6246C6.68404 78.1837 6.54117 77.6716 6.55048 77.151Z" fill="#545454"/>
</svg>
