<svg xmlns="http://www.w3.org/2000/svg" xmlns:xlink="http://www.w3.org/1999/xlink" version="1.1" x="0px" y="0px" viewBox="0 0 780 440" xml:space="preserve"> <g id="Background"> </g> <g id="GRAPHICS"> <g transform="translate(858.0 1170.0) rotate(-19.747512109852476 591.0 439.0) translate(2.0 0.0) scale(4.0479452054794525 4.046082949308755)"> </g> </g> <g id="PHOTO"> <g id="UZP5GC_7_"> </g> <g id="UZP5GC_5_"> </g> <rect x="-7.9" y="-3.54" fill="#C7DBF9" stroke="#182020" stroke-width="1.5" stroke-miterlimit="10" width="790.76" height="449.51"></rect> <g> <g> <path fill="#205BC3" stroke="#231F20" stroke-width="1.5" stroke-linecap="round" stroke-linejoin="round" stroke-miterlimit="10" d=" M469.58,300.54c-55.08,23.42-107.13,21.32-163.13-0.32c-5.37-2.08-8.78-7.41-8.5-13.16l2.02-26.78c0-0.01,0-0.01,0-0.01 l5.58-73.93h163.38l4.84,55.21l4.01,45.77C478.13,293.01,474.83,298.3,469.58,300.54z"></path> </g> <g> <path fill="#0C3F89" stroke="#231F20" stroke-width="1.5" stroke-linecap="round" stroke-linejoin="round" stroke-miterlimit="10" d=" M514.83,198.92c-0.04-0.09-0.1-0.19-0.15-0.28c0,0-0.01,0-0.01-0.01c-0.06-0.08-0.12-0.16-0.19-0.23 c-0.12-0.15-0.27-0.28-0.43-0.38c-0.12-0.08-0.24-0.14-0.37-0.2c-0.27-0.12-0.57-0.18-0.88-0.18H261.69 c-0.31,0-0.61,0.06-0.88,0.18c-0.13,0.06-0.26,0.13-0.38,0.21c-0.25,0.16-0.47,0.38-0.63,0.62c-0.05,0.09-0.1,0.17-0.14,0.26 c-0.05,0.1-0.09,0.2-0.13,0.31c0,0.01,0,0.01-0.01,0.02c-0.02,0.1-0.05,0.2-0.06,0.3c-0.03,0.15-0.04,0.31-0.03,0.46 c0.04,0.97,0.69,1.8,1.61,2.08l125.56,37.36c0.21,0.06,0.42,0.09,0.64,0.09c0.22,0,0.44-0.03,0.65-0.09l125.55-37.36 c0.93-0.28,1.58-1.11,1.62-2.08C515.08,199.62,514.99,199.25,514.83,198.92z"></path> <path fill="#0C3F89" stroke="#231F20" stroke-width="1.5" stroke-linecap="round" stroke-linejoin="round" stroke-miterlimit="10" d=" M515.07,199.91v20.04c0,1-0.66,1.88-1.62,2.17l-125.56,37.37c-0.21,0.06-0.43,0.09-0.65,0.09c-0.21,0-0.43-0.03-0.64-0.09 l-125.56-37.37c-0.96-0.29-1.62-1.17-1.62-2.17v-20.04c0-0.13,0.01-0.25,0.04-0.37c-0.03,0.15-0.04,0.31-0.03,0.46 c0.04,0.97,0.69,1.8,1.61,2.08l125.56,37.36c0.21,0.06,0.42,0.09,0.64,0.09c0.22,0,0.44-0.03,0.65-0.09l125.55-37.36 c0.93-0.28,1.58-1.11,1.62-2.08c0.02-0.38-0.07-0.75-0.23-1.08C514.99,199.22,515.07,199.55,515.07,199.91z"></path> </g> <path fill="#205BC3" stroke="#231F20" stroke-width="1.5" stroke-linecap="round" stroke-linejoin="round" stroke-miterlimit="10" d=" M515.06,200c-0.04,0.97-0.69,1.8-1.62,2.08l-125.55,37.36c-0.21,0.06-0.43,0.09-0.65,0.09c-0.22,0-0.43-0.03-0.64-0.09 l-125.56-37.36c-0.92-0.28-1.57-1.11-1.61-2.08c-0.01-0.15,0-0.31,0.03-0.46c0.01-0.1,0.04-0.2,0.06-0.3 c0.01-0.01,0.01-0.01,0.01-0.02c0.04-0.11,0.08-0.21,0.13-0.31c0.04-0.09,0.09-0.17,0.14-0.26c0.16-0.24,0.38-0.46,0.63-0.62 c0.12-0.08,0.25-0.15,0.38-0.21c0.02-0.02,0.03-0.02,0.05-0.03l121.38-47.84c3.23-1.27,6.78-1.27,10,0l121.39,47.84 c0.02,0.01,0.03,0.01,0.05,0.03c0.13,0.05,0.26,0.12,0.37,0.2c0.16,0.1,0.31,0.23,0.43,0.38c0.07,0.07,0.13,0.15,0.19,0.23 c0,0.01,0.01,0.01,0.01,0.01c0.05,0.09,0.11,0.19,0.15,0.28C514.99,199.25,515.08,199.62,515.06,200z"></path> </g> <g> <path fill="#DD9903" stroke="#000000" stroke-miterlimit="10" d="M323.81,343.54h-12.47c-3.06,0-5.36-2.79-4.79-5.79l3.52-18.48 c0.44-2.3,2.45-3.97,4.79-3.97h4.55c2.26,0,4.22,1.55,4.75,3.75l4.4,18.48C329.29,340.6,326.96,343.54,323.81,343.54z"></path> </g> <g> <ellipse fill="#0C3F89" stroke="#000000" stroke-miterlimit="10" cx="387.24" cy="189.24" rx="15.69" ry="6.89"></ellipse> </g> <g> <path fill="#FFBC00" stroke="#000000" stroke-miterlimit="10" d="M317.32,319.59c-1.27,0-2.3-1.03-2.3-2.3V216.46 c0-0.95,0.58-1.8,1.47-2.14l69.93-27.22c1.19-0.46,2.52,0.13,2.98,1.31c0.46,1.18-0.13,2.52-1.31,2.98l-68.46,26.65v99.26 C319.62,318.56,318.59,319.59,317.32,319.59z"></path> </g> <line fill="#FFBC00" stroke="#000000" stroke-miterlimit="10" x1="387.24" y1="239.53" x2="387.24" y2="259.58"></line> <path fill="#A1C2F8" stroke="#182020" stroke-width="1.0525" stroke-miterlimit="10" d="M207.61,118.69 c-0.15-13.55,12.69-24.68,28.68-24.85c15.99-0.18,29.07,10.67,29.21,24.22c0.13,12.2-10.27,22.44-24.02,24.48l0.12,10.67 l-11.05-10.81C217.55,140.1,207.74,130.41,207.61,118.69z"></path> <g> <circle fill="#205BC3" stroke="#182020" stroke-width="1.0525" stroke-miterlimit="10" cx="247.55" cy="118.69" r="3.55"></circle> <circle fill="#205BC3" stroke="#182020" stroke-width="1.0525" stroke-miterlimit="10" cx="236.08" cy="118.83" r="3.55"></circle> <circle fill="#205BC3" stroke="#182020" stroke-width="1.0525" stroke-miterlimit="10" cx="225.39" cy="118.97" r="3.55"></circle> </g> <g> <g> <path fill="#A1C2F8" stroke="#182020" stroke-width="1.0525" stroke-miterlimit="10" d="M641.08,224.31l-1.8,0.56l1.13,1.5 c0.52,0.69,0.79,1.5,0.79,2.35c0,1.92-1.38,3.54-3.27,3.86l-1.8,0.3l0.84,1.62c0.29,0.56,0.44,1.17,0.44,1.8 c0,2.06-1.61,3.77-3.67,3.9l-22.6,0.01c-0.07,0-2.8-0.05-4.8-1.76c-0.43-0.37-0.83-0.63-1.25-0.82l-0.48-0.22v-20.89l2.36-2.01 l7.95-14.74c0.35-0.58,0.61-1.2,0.77-1.86c0.16-0.66,0.22-1.35,0.16-2.05l-0.63-8.27c0.55-0.31,1.17-0.48,1.81-0.48 c3.43,0,6.38,5.49,6.38,9.98c0,0.62-0.05,1.25-0.14,1.86l-1.38,8.95h17.24c1.1,0,2.19,0.46,2.98,1.26 c0.74,0.75,1.15,1.7,1.14,2.69c-0.01,1.22-0.58,2.35-1.56,3.09l-1.6,1.22l1.75,0.99c1.23,0.7,1.99,2,1.99,3.41 C643.83,222.29,642.72,223.79,641.08,224.31L641.08,224.31z"></path> </g> <g> <rect x="589.9" y="213.12" fill="#205BC3" stroke="#182020" stroke-width="1.0525" stroke-miterlimit="10" width="15.41" height="27.36"></rect> </g> </g> <g> <circle fill="#A1C2F8" stroke="#182020" stroke-width="1.0525" stroke-miterlimit="10" cx="522.91" cy="118.09" r="26.45"></circle> <circle fill="#205BC3" stroke="#182020" stroke-width="1.0525" stroke-miterlimit="10" cx="522.76" cy="105.89" r="5.94"></circle> <path fill="#205BC3" stroke="#182020" stroke-width="1.0525" stroke-miterlimit="10" d="M533.5,133.25h-21.28v-9.16 c0-5.54,4.49-10.03,10.03-10.03h1.21c5.54,0,10.03,4.49,10.03,10.03V133.25z"></path> </g> <path fill="none" stroke="#182020" stroke-miterlimit="10" d="M303.47,130.24V78.45c0-7.71-6.25-13.97-13.97-13.97H181.57 c-7.71,0-13.97,6.25-13.97,13.97v52.35c0,7.71-6.25,13.97-13.97,13.97H99.67c-7.71,0-13.97,6.25-13.97,13.97v91.21 c0,7.71,6.25,13.97,13.97,13.97h53.39"></path> <path fill="none" stroke="#182020" stroke-miterlimit="10" d="M157.98,293.92v63.18c0,5.44,4.2,9.86,9.38,9.86h95.92"></path> <path fill="none" stroke="#182020" stroke-miterlimit="10" d="M461.21,130.24V79.5c0-6.9,6.25-12.49,13.97-12.49h101.27 c7.71,0,13.97,5.59,13.97,12.49v76.05c0,6.9-6.25,12.49-13.97,12.49h-8.8c-7.71,0-13.97,5.59-13.97,12.49v69.09"></path> <path fill="none" stroke="#182020" stroke-miterlimit="10" d="M610.01,155.92h50.94c7.71,0,13.97,6.25,13.97,13.97v91.47 c0,7.71-6.25,13.97-13.97,13.97h-30.24c-7.71,0-13.97,6.25-13.97,13.97v62.08c0,7.71-6.25,13.97-13.97,13.97H480.55"></path> <circle fill="#AC44A8" stroke="#182020" stroke-width="1.0525" stroke-miterlimit="10" cx="171.97" cy="68.35" r="7.15"></circle> <path fill="#AC44A8" stroke="#182020" stroke-width="1.0525" stroke-miterlimit="10" d="M470.67,134.01c0,0.13,0,0.27-0.01,0.4 h-18.9c-0.01-0.13-0.01-0.27-0.01-0.4c0-5.23,4.24-9.46,9.46-9.46C466.44,124.55,470.67,128.78,470.67,134.01z"></path> <path fill="#AC44A8" stroke="#182020" stroke-width="1.0525" stroke-miterlimit="10" d="M262.02,358c0.13,0,0.27,0,0.4,0.01v18.9 c-0.13,0.01-0.27,0.01-0.4,0.01c-5.23,0-9.46-4.24-9.46-9.46C252.56,362.23,256.79,358,262.02,358z"></path> <circle fill="#AC44A8" stroke="#182020" stroke-width="1.0525" stroke-miterlimit="10" cx="156.62" cy="263.79" r="7.15"></circle> <circle fill="#AC44A8" stroke="#182020" stroke-width="1.0525" stroke-miterlimit="10" cx="672.5" cy="271.23" r="7.15"></circle> <circle fill="#AC44A8" stroke="#182020" stroke-width="1.0525" stroke-miterlimit="10" cx="614.55" cy="155.2" r="7.15"></circle> <g> <circle fill="#A1C2F8" stroke="#182020" stroke-width="1.0525" stroke-miterlimit="10" cx="226.07" cy="313.82" r="26.22"></circle> <g> <path fill="#205BC3" stroke="#182020" stroke-width="1.0525" stroke-miterlimit="10" d="M239.74,309.48 c0-3.85-3.12-6.96-6.96-6.96c-3.23,0-5.93,2.21-6.71,5.2c-0.78-2.99-3.48-5.2-6.71-5.2c-3.85,0-6.96,3.12-6.96,6.96 c0,0,0,0.47,0.13,1.26c0.01,0.07,0.02,0.13,0.03,0.2c0.52,3.04,3.34,10.42,13.32,17.66c0,0,11.98-7.93,13.68-17.54 C239.67,310.55,239.74,310.02,239.74,309.48z"></path> </g> </g> <g> <g> <g id="UZP5GC_00000150085637971744337130000001340306223471948207_"> </g> <circle fill="#205BC3" stroke="#000000" stroke-miterlimit="10" cx="142.6" cy="204.1" r="29.36"></circle> </g> <path fill="#FFFFFF" d="M144.43,186.17c0.04-0.02,0.06-0.04,0.09-0.04c0.04-0.01,0.07,0,0.11,0c2.15,0,4.31,0,6.46,0 c0.03,0,0.06,0,0.08,0c0.01,0.01,0.01,0.01,0.02,0.02c0,0.01,0,0.01,0,0.02c0.02,1.67,0.01,5.98-0.01,6.29c-0.06,0-0.13,0-0.19,0 c-1.11,0-2.23,0-3.34,0c-0.11,0-0.23-0.04-0.34,0.04c-0.01,0.01-0.04,0-0.07,0c-0.07,0-0.13,0-0.2,0.01 c-0.04,0.06-0.11,0.03-0.16,0.04c-0.04,0.07-0.14,0.01-0.18,0.09c-0.07-0.01-0.11,0.07-0.18,0.05c-0.02,0-0.04,0.03-0.07,0.04 c-0.06,0.01-0.09,0.09-0.16,0.1c-0.04,0.01-0.07,0.06-0.09,0.09c-0.03,0.04-0.08,0.02-0.11,0.06c-0.06,0.08-0.15,0.13-0.19,0.23 c-0.08,0.06-0.09,0.17-0.15,0.25c-0.01,0.02-0.02,0.05-0.03,0.07c-0.02,0.02-0.02,0.05-0.03,0.07c-0.01,0.01-0.02,0.03-0.02,0.03 c0.03,0.1-0.07,0.17-0.05,0.27c-0.03,0.06-0.05,0.13-0.05,0.2c0.01,0.07,0,0.13,0,0.2c0,1.16,0,2.33,0,3.49c0,0.06,0,0.12,0,0.18 c1.88,0,3.74,0,5.59,0c0.01,0.01,0.02,0.02,0.02,0.02c0,0.01,0,0.01,0,0.02c0,0.13,0,0.27,0,0.4c0,0.05-0.06,0.08-0.05,0.14 c0.01,0.05,0,0.1,0,0.15c0,0.04,0,0.09,0,0.13c0,0.05,0,0.1,0,0.15c0,0.04,0,0.07-0.03,0.1c-0.02,0.02-0.01,0.05-0.01,0.08 c0,0.13,0,0.27,0,0.4c0,0.05,0.02,0.1-0.03,0.14c-0.02,0.01-0.01,0.05-0.01,0.08c0,0.11,0,0.22,0,0.33c0,0.06,0.02,0.12-0.04,0.16 c-0.02,0.01-0.01,0.05-0.01,0.08c0,0.11,0,0.22,0,0.33c0,0.07,0.03,0.15-0.04,0.21c-0.01,0.01,0,0.03,0,0.04c0,0.01,0,0.01,0,0.02 c0,0.05,0,0.1,0,0.15s0,0.1,0,0.15c0,0.04-0.01,0.09,0,0.13c0.01,0.06-0.04,0.09-0.04,0.14c0,0.1,0,0.21,0,0.31 c0,0.05,0,0.1,0,0.15c0,0.05,0,0.1-0.04,0.14c-0.01,0.01,0,0.04,0,0.06c0,0.15,0,0.3,0,0.44c0,0.07-0.07,0.12-0.05,0.2 c0.01,0.07,0,0.15,0,0.22c0,0.07,0,0.15,0,0.22c0,0.06-0.06,0.11-0.05,0.18c0.01,0.06,0,0.13,0,0.2c0,0.07,0,0.13,0,0.2 c0,0.06-0.06,0.09-0.05,0.16c0.01,0.06,0,0.12,0,0.18c-0.04,0.02-0.08,0.06-0.12,0.07c-0.04,0.01-0.09,0-0.13,0 c-1.52,0-3.04,0-4.56,0c-0.07,0-0.15,0-0.21,0c-0.01,0.01-0.02,0.02-0.02,0.02c0,0.01,0,0.01,0,0.02c0,0.04,0,0.07,0,0.11 c0,6.1,0,12.21,0,18.31c0,0.01,0,0.03,0,0.04c0,0.01,0,0.01,0,0.02c0,0.01,0,0.02,0,0.02c0,0.01-0.01,0.01-0.02,0.02 c-2.54,0-5.08,0-7.61,0c-0.01-0.01-0.02-0.01-0.02-0.02c0-0.01,0-0.03,0-0.04c0-6.13,0-12.27,0-18.4 c-0.03-0.04-0.07-0.02-0.1-0.02c-1.28,0-2.55,0-3.83,0c-0.07,0-0.15,0-0.22,0c-0.02-0.26-0.03-3.96-0.01-6.39 c0.01-0.01,0.01-0.01,0.02-0.02c0.01,0,0.01-0.01,0.02-0.01c1.32,0,2.64,0,3.96,0c0.01,0,0.01-0.01,0.02-0.01 c0.02-0.02,0.01-0.06,0.01-0.08c0-0.26,0-0.52,0-0.77c0-0.1-0.04-0.22,0.04-0.32c0.01-0.02,0-0.06,0-0.09c0-1.16,0-2.31,0-3.47 c0-0.05,0.02-0.1-0.03-0.14c-0.02-0.01-0.01-0.05-0.01-0.08c0-0.17,0-0.34,0-0.51c0-0.06,0.03-0.09,0.04-0.14 c0.01-0.05,0-0.1,0-0.15c0-0.1,0-0.19,0-0.29c0-0.04,0.01-0.08,0-0.11c-0.03-0.09,0.06-0.14,0.05-0.23c-0.01-0.07,0-0.15,0-0.22 c0.09-0.07,0.02-0.17,0.05-0.25c0.02-0.05,0.06-0.1,0.04-0.16c-0.01-0.05,0.01-0.1,0.04-0.14c-0.04-0.1,0.06-0.17,0.05-0.27 c-0.01-0.05,0.07-0.09,0.04-0.16c0.07-0.04,0.02-0.14,0.09-0.18c-0.03-0.08,0.06-0.13,0.05-0.2c0-0.03,0.02-0.06,0.04-0.09 c0.03-0.04,0.04-0.08,0.05-0.14c0-0.03,0.03-0.08,0.05-0.11c0.03-0.04,0.02-0.1,0.07-0.13c-0.02-0.06,0.06-0.08,0.05-0.13 c0.04-0.02,0.04-0.07,0.06-0.11c0.03-0.04,0.06-0.08,0.06-0.13c0.01-0.07,0.11-0.08,0.09-0.16c0.05-0.03,0.04-0.1,0.09-0.14 c0.05-0.03,0.04-0.1,0.09-0.14c0.05-0.03,0.07-0.09,0.1-0.14c0.03-0.05,0.08-0.08,0.12-0.13c0.05-0.05,0.07-0.12,0.12-0.17 c0.06-0.04,0.11-0.1,0.16-0.15c0.05-0.05,0.09-0.09,0.14-0.14c0.05-0.05,0.11-0.1,0.15-0.16c0.05-0.06,0.13-0.09,0.19-0.14 c0.06-0.05,0.1-0.12,0.18-0.14c0.04-0.01,0.07-0.06,0.09-0.09c0.03-0.04,0.08-0.02,0.11-0.06c0.04-0.05,0.1-0.07,0.15-0.11 c0.04-0.04,0.1-0.06,0.15-0.07c0.06-0.02,0.08-0.1,0.16-0.1c0.04,0,0.08-0.05,0.12-0.07c0.05-0.02,0.11-0.03,0.15-0.07 c0.04-0.03,0.1-0.03,0.12-0.07c0.06,0.02,0.08-0.07,0.13-0.05c0.03-0.07,0.13-0.01,0.17-0.08c0.06,0,0.11-0.08,0.18-0.05 c0.03-0.05,0.09-0.03,0.12-0.07c0.03-0.04,0.1,0.01,0.14-0.05c0.03-0.04,0.1,0.01,0.13-0.05c0.09,0.01,0.15-0.08,0.24-0.05 c0.06-0.03,0.11-0.05,0.18-0.06c0.01,0,0.02-0.03,0.03-0.03c0.04,0,0.1,0.01,0.13-0.01c0.04-0.03,0.07-0.05,0.12-0.04 c0.06,0.02,0.09-0.05,0.14-0.05c0.05,0,0.1,0,0.15,0c0.04-0.06,0.11-0.04,0.16-0.04c0.06,0.01,0.09-0.06,0.16-0.05 c0.05,0.01,0.1,0,0.15,0c0.1-0.09,0.23-0.02,0.34-0.05c0.05-0.01,0.1-0.06,0.16-0.04c0.06,0.01,0.12,0,0.18,0 C144.33,186.17,144.39,186.17,144.43,186.17z"></path> </g> <g> <rect x="537.34" y="285.46" fill="#205BC3" stroke="#000000" stroke-miterlimit="10" width="47.7" height="47.7"></rect> <g id="nJAOJK_00000127046218798442437830000001879026646232209315_"> <g> <path fill="#FFFFFF" d="M557.98,320.95c-0.11-0.06-0.15-0.15-0.14-0.27c0-0.09,0-0.18,0-0.28c0-3.73,0-7.46,0-11.19 c0-1.92,0-3.83,0-5.75c0-0.05,0-0.11,0-0.16c0.01-0.11,0.07-0.16,0.18-0.18c0.04-0.01,0.08-0.01,0.12-0.01c1.6,0,3.19,0,4.79,0 c0.24,0,0.29,0.05,0.29,0.29c0,0.44-0.01,0.88-0.01,1.33c0,0.21,0.01,0.42,0.01,0.63c0,0.01,0.01,0.03,0.01,0.07 c0.04-0.05,0.06-0.08,0.08-0.11c0.22-0.32,0.47-0.62,0.74-0.9c0.77-0.77,1.69-1.28,2.74-1.55c0.42-0.1,0.84-0.17,1.26-0.19 c0.32-0.01,0.63-0.03,0.95-0.02c0.53,0.02,1.06,0.09,1.58,0.21c0.47,0.11,0.93,0.25,1.36,0.46c0.88,0.43,1.56,1.07,2.05,1.91 c0.31,0.52,0.52,1.08,0.69,1.66c0.13,0.46,0.23,0.93,0.29,1.4c0.03,0.22,0.04,0.44,0.06,0.67c0.02,0.4,0.05,0.8,0.06,1.2 c0.02,0.52,0.02,1.03,0.03,1.55c0,0.1,0,0.19,0,0.29c0,0.04,0.01,0.08,0.02,0.12c0,2.88,0,5.76,0,8.64 c-0.01,0.03-0.02,0.06-0.04,0.1c-0.03,0.02-0.05,0.04-0.08,0.06c-1.79,0-3.59,0-5.38,0c-0.1-0.07-0.12-0.17-0.12-0.28 c0-0.18,0-0.36,0-0.54c0-2.73,0-5.46,0-8.19c0-0.47,0-0.95-0.04-1.42c-0.05-0.54-0.18-1.06-0.41-1.54 c-0.26-0.56-0.67-0.97-1.26-1.18c-0.29-0.1-0.58-0.15-0.88-0.16c-0.32-0.01-0.63-0.01-0.94,0.04c-0.45,0.07-0.87,0.23-1.24,0.5 c-0.4,0.29-0.68,0.69-0.87,1.14c-0.25,0.58-0.35,1.19-0.39,1.82c-0.03,0.44-0.03,0.88-0.03,1.33c0,2.7,0,5.4,0,8.09 c0,0.07,0,0.13,0,0.2c0,0.09-0.03,0.16-0.11,0.2C561.55,320.95,559.77,320.95,557.98,320.95z"></path> <path fill="#FFFFFF" d="M548.99,320.95c-0.12-0.06-0.14-0.16-0.14-0.28c0-0.53,0-1.06,0-1.59c0-0.07,0-0.14,0-0.21 c0-5.13,0-10.26,0-15.39c0-0.07,0-0.14,0.01-0.21c0.01-0.1,0.05-0.13,0.15-0.14c0.06-0.01,0.12-0.01,0.17-0.01 c1.33,0,2.66,0,4,0c0.33,0,0.66,0,0.99,0c0.25,0,0.31,0.06,0.31,0.31c0,0.65,0,1.3,0,1.95c0,4.65,0,9.3,0,13.95 c0,0.42,0,0.84,0,1.26c0,0.03,0,0.07,0,0.1c0,0.11-0.03,0.2-0.14,0.26C552.57,320.95,550.78,320.95,548.99,320.95z"></path> <path fill="#FFFFFF" d="M551.86,294.29c0.1,0.01,0.21,0.03,0.31,0.04c0.63,0.09,1.18,0.35,1.66,0.78 c0.6,0.54,0.95,1.22,1.05,2.02c0.11,0.91-0.12,1.74-0.7,2.45c-0.54,0.67-1.25,1.06-2.1,1.16c-1.13,0.14-2.1-0.22-2.86-1.07 c-0.43-0.47-0.67-1.04-0.76-1.67c-0.01-0.04-0.03-0.09-0.04-0.13c0-0.22,0-0.45,0-0.67c0.01-0.05,0.03-0.09,0.04-0.14 c0.12-0.82,0.49-1.5,1.13-2.03c0.42-0.35,0.9-0.57,1.44-0.67c0.15-0.03,0.3-0.04,0.44-0.07 C551.6,294.29,551.73,294.29,551.86,294.29z"></path> </g> </g> </g> </g> <g id="Layer_4"> </g> </svg>