<svg width="186" height="46" viewBox="0 0 186 46" fill="none" xmlns="http://www.w3.org/2000/svg">
<path d="M58.27 15.45V20.7H65.32V24.03H58.27V29.58H66.22V33H54.07V12.03H66.22V15.45H58.27ZM68.9568 24.63C68.9568 22.95 69.2868 21.46 69.9468 20.16C70.6268 18.86 71.5468 17.86 72.7068 17.16C73.8668 16.46 75.1568 16.11 76.5768 16.11C77.6568 16.11 78.6868 16.35 79.6668 16.83C80.6468 17.29 81.4268 17.91 82.0068 18.69V10.8H86.2668V33H82.0068V30.54C81.4868 31.36 80.7568 32.02 79.8168 32.52C78.8768 33.02 77.7868 33.27 76.5468 33.27C75.1468 33.27 73.8668 32.91 72.7068 32.19C71.5468 31.47 70.6268 30.46 69.9468 29.16C69.2868 27.84 68.9568 26.33 68.9568 24.63ZM82.0368 24.69C82.0368 23.67 81.8368 22.8 81.4368 22.08C81.0368 21.34 80.4968 20.78 79.8168 20.4C79.1368 20 78.4068 19.8 77.6268 19.8C76.8468 19.8 76.1268 19.99 75.4668 20.37C74.8068 20.75 74.2668 21.31 73.8468 22.05C73.4468 22.77 73.2468 23.63 73.2468 24.63C73.2468 25.63 73.4468 26.51 73.8468 27.27C74.2668 28.01 74.8068 28.58 75.4668 28.98C76.1468 29.38 76.8668 29.58 77.6268 29.58C78.4068 29.58 79.1368 29.39 79.8168 29.01C80.4968 28.61 81.0368 28.05 81.4368 27.33C81.8368 26.59 82.0368 25.71 82.0368 24.69ZM106.059 16.38V33H101.829V30.9C101.289 31.62 100.579 32.19 99.6988 32.61C98.8388 33.01 97.8988 33.21 96.8788 33.21C95.5788 33.21 94.4288 32.94 93.4288 32.4C92.4288 31.84 91.6388 31.03 91.0588 29.97C90.4988 28.89 90.2188 27.61 90.2188 26.13V16.38H94.4188V25.53C94.4188 26.85 94.7488 27.87 95.4088 28.59C96.0688 29.29 96.9688 29.64 98.1088 29.64C99.2688 29.64 100.179 29.29 100.839 28.59C101.499 27.87 101.829 26.85 101.829 25.53V16.38H106.059Z" fill="black"/>
<path d="M121.003 33L116.383 24.84H114.403V33H110.203V12.06H118.063C119.683 12.06 121.063 12.35 122.203 12.93C123.343 13.49 124.193 14.26 124.753 15.24C125.333 16.2 125.623 17.28 125.623 18.48C125.623 19.86 125.223 21.11 124.423 22.23C123.623 23.33 122.433 24.09 120.853 24.51L125.863 33H121.003ZM114.403 21.69H117.913C119.053 21.69 119.903 21.42 120.463 20.88C121.023 20.32 121.303 19.55 121.303 18.57C121.303 17.61 121.023 16.87 120.463 16.35C119.903 15.81 119.053 15.54 117.913 15.54H114.403V21.69ZM128.342 24.63C128.342 22.95 128.672 21.46 129.332 20.16C130.012 18.86 130.922 17.86 132.062 17.16C133.222 16.46 134.512 16.11 135.932 16.11C137.172 16.11 138.252 16.36 139.172 16.86C140.112 17.36 140.862 17.99 141.422 18.75V16.38H145.652V33H141.422V30.57C140.882 31.35 140.132 32 139.172 32.52C138.232 33.02 137.142 33.27 135.902 33.27C134.502 33.27 133.222 32.91 132.062 32.19C130.922 31.47 130.012 30.46 129.332 29.16C128.672 27.84 128.342 26.33 128.342 24.63ZM141.422 24.69C141.422 23.67 141.222 22.8 140.822 22.08C140.422 21.34 139.882 20.78 139.202 20.4C138.522 20 137.792 19.8 137.012 19.8C136.232 19.8 135.512 19.99 134.852 20.37C134.192 20.75 133.652 21.31 133.232 22.05C132.832 22.77 132.632 23.63 132.632 24.63C132.632 25.63 132.832 26.51 133.232 27.27C133.652 28.01 134.192 28.58 134.852 28.98C135.532 29.38 136.252 29.58 137.012 29.58C137.792 29.58 138.522 29.39 139.202 29.01C139.882 28.61 140.422 28.05 140.822 27.33C141.222 26.59 141.422 25.71 141.422 24.69ZM154.644 19.83V27.87C154.644 28.43 154.774 28.84 155.034 29.1C155.314 29.34 155.774 29.46 156.414 29.46H158.364V33H155.724C152.184 33 150.414 31.28 150.414 27.84V19.83H148.434V16.38H150.414V12.27H154.644V16.38H158.364V19.83H154.644ZM176.834 24.33C176.834 24.93 176.794 25.47 176.714 25.95H164.564C164.664 27.15 165.084 28.09 165.824 28.77C166.564 29.45 167.474 29.79 168.554 29.79C170.114 29.79 171.224 29.12 171.884 27.78H176.414C175.934 29.38 175.014 30.7 173.654 31.74C172.294 32.76 170.624 33.27 168.644 33.27C167.044 33.27 165.604 32.92 164.324 32.22C163.064 31.5 162.074 30.49 161.354 29.19C160.654 27.89 160.304 26.39 160.304 24.69C160.304 22.97 160.654 21.46 161.354 20.16C162.054 18.86 163.034 17.86 164.294 17.16C165.554 16.46 167.004 16.11 168.644 16.11C170.224 16.11 171.634 16.45 172.874 17.13C174.134 17.81 175.104 18.78 175.784 20.04C176.484 21.28 176.834 22.71 176.834 24.33ZM172.484 23.13C172.464 22.05 172.074 21.19 171.314 20.55C170.554 19.89 169.624 19.56 168.524 19.56C167.484 19.56 166.604 19.88 165.884 20.52C165.184 21.14 164.754 22.01 164.594 23.13H172.484ZM181.76 33.21C181 33.21 180.37 32.98 179.87 32.52C179.39 32.04 179.15 31.45 179.15 30.75C179.15 30.05 179.39 29.47 179.87 29.01C180.37 28.53 181 28.29 181.76 28.29C182.5 28.29 183.11 28.53 183.59 29.01C184.07 29.47 184.31 30.05 184.31 30.75C184.31 31.45 184.07 32.04 183.59 32.52C183.11 32.98 182.5 33.21 181.76 33.21Z" fill="#FFCA1D"/>
<rect y="1" width="45" height="45" rx="8" fill="#FFCA1D"/>
<rect x="7.4021" y="8.875" width="30.8478" height="29.25" rx="8" fill="white"/>
<path d="M22.5 15.625V31.375" stroke="#FFCA1D" stroke-width="4" stroke-linecap="round"/>
<path d="M16.875 18.4375L16.875 31.375" stroke="#FFCA1D" stroke-width="4" stroke-linecap="round"/>
<path d="M28.125 21.8125V31.375" stroke="#FFCA1D" stroke-width="4" stroke-linecap="round"/>
</svg>
