<svg width="186" height="100" viewBox="0 0 186 100" fill="none" xmlns="http://www.w3.org/2000/svg">
<path d="M58.27 47.45V52.7H65.32V56.03H58.27V61.58H66.22V65H54.07V44.03H66.22V47.45H58.27ZM68.9568 56.63C68.9568 54.95 69.2868 53.46 69.9468 52.16C70.6268 50.86 71.5468 49.86 72.7068 49.16C73.8668 48.46 75.1568 48.11 76.5768 48.11C77.6568 48.11 78.6868 48.35 79.6668 48.83C80.6468 49.29 81.4268 49.91 82.0068 50.69V42.8H86.2668V65H82.0068V62.54C81.4868 63.36 80.7568 64.02 79.8168 64.52C78.8768 65.02 77.7868 65.27 76.5468 65.27C75.1468 65.27 73.8668 64.91 72.7068 64.19C71.5468 63.47 70.6268 62.46 69.9468 61.16C69.2868 59.84 68.9568 58.33 68.9568 56.63ZM82.0368 56.69C82.0368 55.67 81.8368 54.8 81.4368 54.08C81.0368 53.34 80.4968 52.78 79.8168 52.4C79.1368 52 78.4068 51.8 77.6268 51.8C76.8468 51.8 76.1268 51.99 75.4668 52.37C74.8068 52.75 74.2668 53.31 73.8468 54.05C73.4468 54.77 73.2468 55.63 73.2468 56.63C73.2468 57.63 73.4468 58.51 73.8468 59.27C74.2668 60.01 74.8068 60.58 75.4668 60.98C76.1468 61.38 76.8668 61.58 77.6268 61.58C78.4068 61.58 79.1368 61.39 79.8168 61.01C80.4968 60.61 81.0368 60.05 81.4368 59.33C81.8368 58.59 82.0368 57.71 82.0368 56.69ZM106.059 48.38V65H101.829V62.9C101.289 63.62 100.579 64.19 99.6988 64.61C98.8388 65.01 97.8988 65.21 96.8788 65.21C95.5788 65.21 94.4288 64.94 93.4288 64.4C92.4288 63.84 91.6388 63.03 91.0588 61.97C90.4988 60.89 90.2188 59.61 90.2188 58.13V48.38H94.4188V57.53C94.4188 58.85 94.7488 59.87 95.4088 60.59C96.0688 61.29 96.9688 61.64 98.1088 61.64C99.2688 61.64 100.179 61.29 100.839 60.59C101.499 59.87 101.829 58.85 101.829 57.53V48.38H106.059Z" fill="white"/>
<path d="M121.003 65L116.383 56.84H114.403V65H110.203V44.06H118.063C119.683 44.06 121.063 44.35 122.203 44.93C123.343 45.49 124.193 46.26 124.753 47.24C125.333 48.2 125.623 49.28 125.623 50.48C125.623 51.86 125.223 53.11 124.423 54.23C123.623 55.33 122.433 56.09 120.853 56.51L125.863 65H121.003ZM114.403 53.69H117.913C119.053 53.69 119.903 53.42 120.463 52.88C121.023 52.32 121.303 51.55 121.303 50.57C121.303 49.61 121.023 48.87 120.463 48.35C119.903 47.81 119.053 47.54 117.913 47.54H114.403V53.69ZM128.342 56.63C128.342 54.95 128.672 53.46 129.332 52.16C130.012 50.86 130.922 49.86 132.062 49.16C133.222 48.46 134.512 48.11 135.932 48.11C137.172 48.11 138.252 48.36 139.172 48.86C140.112 49.36 140.862 49.99 141.422 50.75V48.38H145.652V65H141.422V62.57C140.882 63.35 140.132 64 139.172 64.52C138.232 65.02 137.142 65.27 135.902 65.27C134.502 65.27 133.222 64.91 132.062 64.19C130.922 63.47 130.012 62.46 129.332 61.16C128.672 59.84 128.342 58.33 128.342 56.63ZM141.422 56.69C141.422 55.67 141.222 54.8 140.822 54.08C140.422 53.34 139.882 52.78 139.202 52.4C138.522 52 137.792 51.8 137.012 51.8C136.232 51.8 135.512 51.99 134.852 52.37C134.192 52.75 133.652 53.31 133.232 54.05C132.832 54.77 132.632 55.63 132.632 56.63C132.632 57.63 132.832 58.51 133.232 59.27C133.652 60.01 134.192 60.58 134.852 60.98C135.532 61.38 136.252 61.58 137.012 61.58C137.792 61.58 138.522 61.39 139.202 61.01C139.882 60.61 140.422 60.05 140.822 59.33C141.222 58.59 141.422 57.71 141.422 56.69ZM154.644 51.83V59.87C154.644 60.43 154.774 60.84 155.034 61.1C155.314 61.34 155.774 61.46 156.414 61.46H158.364V65H155.724C152.184 65 150.414 63.28 150.414 59.84V51.83H148.434V48.38H150.414V44.27H154.644V48.38H158.364V51.83H154.644ZM176.834 56.33C176.834 56.93 176.794 57.47 176.714 57.95H164.564C164.664 59.15 165.084 60.09 165.824 60.77C166.564 61.45 167.474 61.79 168.554 61.79C170.114 61.79 171.224 61.12 171.884 59.78H176.414C175.934 61.38 175.014 62.7 173.654 63.74C172.294 64.76 170.624 65.27 168.644 65.27C167.044 65.27 165.604 64.92 164.324 64.22C163.064 63.5 162.074 62.49 161.354 61.19C160.654 59.89 160.304 58.39 160.304 56.69C160.304 54.97 160.654 53.46 161.354 52.16C162.054 50.86 163.034 49.86 164.294 49.16C165.554 48.46 167.004 48.11 168.644 48.11C170.224 48.11 171.634 48.45 172.874 49.13C174.134 49.81 175.104 50.78 175.784 52.04C176.484 53.28 176.834 54.71 176.834 56.33ZM172.484 55.13C172.464 54.05 172.074 53.19 171.314 52.55C170.554 51.89 169.624 51.56 168.524 51.56C167.484 51.56 166.604 51.88 165.884 52.52C165.184 53.14 164.754 54.01 164.594 55.13H172.484ZM181.76 65.21C181 65.21 180.37 64.98 179.87 64.52C179.39 64.04 179.15 63.45 179.15 62.75C179.15 62.05 179.39 61.47 179.87 61.01C180.37 60.53 181 60.29 181.76 60.29C182.5 60.29 183.11 60.53 183.59 61.01C184.07 61.47 184.31 62.05 184.31 62.75C184.31 63.45 184.07 64.04 183.59 64.52C183.11 64.98 182.5 65.21 181.76 65.21Z" fill="#FFCA1D"/>
<rect y="33" width="45" height="45" rx="8" fill="#FFCA1D"/>
<rect x="7.40216" y="40.875" width="30.8478" height="29.25" rx="8" fill="white"/>
<path d="M22.4999 47.625V63.375" stroke="#FFCA1D" stroke-width="4" stroke-linecap="round"/>
<path d="M16.8749 50.4375L16.8749 63.375" stroke="#FFCA1D" stroke-width="4" stroke-linecap="round"/>
<path d="M28.1249 53.8125V63.375" stroke="#FFCA1D" stroke-width="4" stroke-linecap="round"/>
</svg>
